<mxfile host="65bd71144e">
    <diagram id="4Jze_hzFDNwxFae50Id3" name="第 1 页">
        <mxGraphModel dx="938" dy="535" grid="1" gridSize="10" guides="1" tooltips="1" connect="1" arrows="1" fold="1" page="1" pageScale="1" pageWidth="827" pageHeight="1169" math="0" shadow="0">
            <root>
                <mxCell id="oKTXekkRCpzwNlFi2FN4-0"/>
                <mxCell id="oKTXekkRCpzwNlFi2FN4-1" parent="oKTXekkRCpzwNlFi2FN4-0"/>
                <mxCell id="JrjyVHzSMyz8ERTU13ko-0" value="*next" style="rounded=0;whiteSpace=wrap;html=1;fillColor=#fff2cc;strokeColor=#d6b656;" vertex="1" parent="oKTXekkRCpzwNlFi2FN4-1">
                    <mxGeometry x="360" y="280" width="40" height="40" as="geometry"/>
                </mxCell>
                <mxCell id="JrjyVHzSMyz8ERTU13ko-5" style="edgeStyle=none;html=1;exitX=1;exitY=0.5;exitDx=0;exitDy=0;entryX=0;entryY=0.5;entryDx=0;entryDy=0;fontSize=15;" edge="1" parent="oKTXekkRCpzwNlFi2FN4-1" source="JrjyVHzSMyz8ERTU13ko-1" target="JrjyVHzSMyz8ERTU13ko-2">
                    <mxGeometry relative="1" as="geometry"/>
                </mxCell>
                <mxCell id="JrjyVHzSMyz8ERTU13ko-1" value="*next" style="rounded=0;whiteSpace=wrap;html=1;fillColor=#fff2cc;strokeColor=#d6b656;" vertex="1" parent="oKTXekkRCpzwNlFi2FN4-1">
                    <mxGeometry x="440" y="280" width="40" height="40" as="geometry"/>
                </mxCell>
                <mxCell id="JrjyVHzSMyz8ERTU13ko-2" value="*next" style="rounded=0;whiteSpace=wrap;html=1;fillColor=#fff2cc;strokeColor=#d6b656;" vertex="1" parent="oKTXekkRCpzwNlFi2FN4-1">
                    <mxGeometry x="520" y="280" width="40" height="40" as="geometry"/>
                </mxCell>
                <mxCell id="JrjyVHzSMyz8ERTU13ko-3" value="" style="endArrow=classic;html=1;fontSize=15;entryX=0;entryY=0.5;entryDx=0;entryDy=0;exitX=1;exitY=0.5;exitDx=0;exitDy=0;" edge="1" parent="oKTXekkRCpzwNlFi2FN4-1" source="JrjyVHzSMyz8ERTU13ko-0" target="JrjyVHzSMyz8ERTU13ko-1">
                    <mxGeometry width="50" height="50" relative="1" as="geometry">
                        <mxPoint x="380" y="330" as="sourcePoint"/>
                        <mxPoint x="430" y="280" as="targetPoint"/>
                    </mxGeometry>
                </mxCell>
                <mxCell id="JrjyVHzSMyz8ERTU13ko-6" value="free_slot[]" style="text;html=1;strokeColor=none;fillColor=none;align=center;verticalAlign=middle;whiteSpace=wrap;rounded=0;fontSize=15;" vertex="1" parent="oKTXekkRCpzwNlFi2FN4-1">
                    <mxGeometry x="180" y="335" width="80" height="30" as="geometry"/>
                </mxCell>
                <mxCell id="JrjyVHzSMyz8ERTU13ko-7" value="*next" style="rounded=0;whiteSpace=wrap;html=1;fillColor=#fff2cc;strokeColor=#d6b656;" vertex="1" parent="oKTXekkRCpzwNlFi2FN4-1">
                    <mxGeometry x="360" y="330" width="40" height="40" as="geometry"/>
                </mxCell>
                <mxCell id="JrjyVHzSMyz8ERTU13ko-8" style="edgeStyle=none;html=1;exitX=1;exitY=0.5;exitDx=0;exitDy=0;entryX=0;entryY=0.5;entryDx=0;entryDy=0;fontSize=15;" edge="1" parent="oKTXekkRCpzwNlFi2FN4-1" source="JrjyVHzSMyz8ERTU13ko-9" target="JrjyVHzSMyz8ERTU13ko-10">
                    <mxGeometry relative="1" as="geometry"/>
                </mxCell>
                <mxCell id="JrjyVHzSMyz8ERTU13ko-9" value="*next" style="rounded=0;whiteSpace=wrap;html=1;fillColor=#fff2cc;strokeColor=#d6b656;" vertex="1" parent="oKTXekkRCpzwNlFi2FN4-1">
                    <mxGeometry x="440" y="330" width="40" height="40" as="geometry"/>
                </mxCell>
                <mxCell id="JrjyVHzSMyz8ERTU13ko-10" value="*next" style="rounded=0;whiteSpace=wrap;html=1;fillColor=#fff2cc;strokeColor=#d6b656;" vertex="1" parent="oKTXekkRCpzwNlFi2FN4-1">
                    <mxGeometry x="520" y="330" width="40" height="40" as="geometry"/>
                </mxCell>
                <mxCell id="JrjyVHzSMyz8ERTU13ko-11" value="" style="endArrow=classic;html=1;fontSize=15;entryX=0;entryY=0.5;entryDx=0;entryDy=0;exitX=1;exitY=0.5;exitDx=0;exitDy=0;" edge="1" parent="oKTXekkRCpzwNlFi2FN4-1" source="JrjyVHzSMyz8ERTU13ko-7" target="JrjyVHzSMyz8ERTU13ko-9">
                    <mxGeometry width="50" height="50" relative="1" as="geometry">
                        <mxPoint x="380" y="380" as="sourcePoint"/>
                        <mxPoint x="430" y="330" as="targetPoint"/>
                    </mxGeometry>
                </mxCell>
                <mxCell id="JrjyVHzSMyz8ERTU13ko-12" value="*next" style="rounded=0;whiteSpace=wrap;html=1;fillColor=#fff2cc;strokeColor=#d6b656;" vertex="1" parent="oKTXekkRCpzwNlFi2FN4-1">
                    <mxGeometry x="360" y="380" width="40" height="40" as="geometry"/>
                </mxCell>
                <mxCell id="JrjyVHzSMyz8ERTU13ko-13" style="edgeStyle=none;html=1;exitX=1;exitY=0.5;exitDx=0;exitDy=0;entryX=0;entryY=0.5;entryDx=0;entryDy=0;fontSize=15;" edge="1" parent="oKTXekkRCpzwNlFi2FN4-1" source="JrjyVHzSMyz8ERTU13ko-14" target="JrjyVHzSMyz8ERTU13ko-15">
                    <mxGeometry relative="1" as="geometry"/>
                </mxCell>
                <mxCell id="JrjyVHzSMyz8ERTU13ko-14" value="*next" style="rounded=0;whiteSpace=wrap;html=1;fillColor=#fff2cc;strokeColor=#d6b656;" vertex="1" parent="oKTXekkRCpzwNlFi2FN4-1">
                    <mxGeometry x="440" y="380" width="40" height="40" as="geometry"/>
                </mxCell>
                <mxCell id="JrjyVHzSMyz8ERTU13ko-15" value="*next" style="rounded=0;whiteSpace=wrap;html=1;fillColor=#fff2cc;strokeColor=#d6b656;" vertex="1" parent="oKTXekkRCpzwNlFi2FN4-1">
                    <mxGeometry x="520" y="380" width="40" height="40" as="geometry"/>
                </mxCell>
                <mxCell id="JrjyVHzSMyz8ERTU13ko-16" value="" style="endArrow=classic;html=1;fontSize=15;entryX=0;entryY=0.5;entryDx=0;entryDy=0;exitX=1;exitY=0.5;exitDx=0;exitDy=0;" edge="1" parent="oKTXekkRCpzwNlFi2FN4-1" source="JrjyVHzSMyz8ERTU13ko-12" target="JrjyVHzSMyz8ERTU13ko-14">
                    <mxGeometry width="50" height="50" relative="1" as="geometry">
                        <mxPoint x="380" y="430" as="sourcePoint"/>
                        <mxPoint x="430" y="380" as="targetPoint"/>
                    </mxGeometry>
                </mxCell>
                <mxCell id="JrjyVHzSMyz8ERTU13ko-17" value="&lt;font style=&quot;font-size: 10px&quot;&gt;8Byte&lt;/font&gt;" style="text;html=1;strokeColor=none;fillColor=none;align=center;verticalAlign=middle;whiteSpace=wrap;rounded=0;fontSize=15;" vertex="1" parent="oKTXekkRCpzwNlFi2FN4-1">
                    <mxGeometry x="290" y="285" width="60" height="30" as="geometry"/>
                </mxCell>
                <mxCell id="JrjyVHzSMyz8ERTU13ko-18" value="&lt;font style=&quot;font-size: 10px&quot;&gt;16Byte&lt;/font&gt;" style="text;html=1;strokeColor=none;fillColor=none;align=center;verticalAlign=middle;whiteSpace=wrap;rounded=0;fontSize=15;" vertex="1" parent="oKTXekkRCpzwNlFi2FN4-1">
                    <mxGeometry x="290" y="335" width="60" height="30" as="geometry"/>
                </mxCell>
                <mxCell id="JrjyVHzSMyz8ERTU13ko-19" value="&lt;font style=&quot;font-size: 10px&quot;&gt;3072Byte&lt;/font&gt;" style="text;html=1;strokeColor=none;fillColor=none;align=center;verticalAlign=middle;whiteSpace=wrap;rounded=0;fontSize=15;" vertex="1" parent="oKTXekkRCpzwNlFi2FN4-1">
                    <mxGeometry x="290" y="385" width="60" height="30" as="geometry"/>
                </mxCell>
                <mxCell id="JrjyVHzSMyz8ERTU13ko-20" value="" style="shape=curlyBracket;whiteSpace=wrap;html=1;rounded=1;fontSize=10;fillColor=#FFFFFF;size=0;" vertex="1" parent="oKTXekkRCpzwNlFi2FN4-1">
                    <mxGeometry x="270" y="280" width="20" height="140" as="geometry"/>
                </mxCell>
                <mxCell id="JrjyVHzSMyz8ERTU13ko-21" value="&lt;font style=&quot;font-size: 19px&quot;&gt;···&lt;/font&gt;" style="text;html=1;strokeColor=none;fillColor=none;align=center;verticalAlign=middle;whiteSpace=wrap;rounded=0;fontSize=10;rotation=90;" vertex="1" parent="oKTXekkRCpzwNlFi2FN4-1">
                    <mxGeometry x="300" y="365" width="40" height="30" as="geometry"/>
                </mxCell>
            </root>
        </mxGraphModel>
    </diagram>
    <diagram id="srqvcAy_XOMKUpoQb4qz" name="第 2 页">
        <mxGraphModel dx="1133" dy="647" grid="1" gridSize="10" guides="1" tooltips="1" connect="1" arrows="1" fold="1" page="1" pageScale="1" pageWidth="827" pageHeight="1169" math="0" shadow="0">
            <root>
                <mxCell id="mBV_9iGOerFN8RgRmnWN-0"/>
                <mxCell id="mBV_9iGOerFN8RgRmnWN-1" parent="mBV_9iGOerFN8RgRmnWN-0"/>
                <mxCell id="ydSMaud5VAtaV8yBInLQ-0" value="&amp;nbsp; &amp;nbsp; &amp;nbsp; &amp;nbsp; &amp;nbsp; &amp;nbsp;······" style="rounded=0;whiteSpace=wrap;html=1;shadow=0;sketch=0;fontFamily=Comic Sans MS;fontSize=15;fontColor=#000000;fillColor=#FFFFFF;" parent="mBV_9iGOerFN8RgRmnWN-1" vertex="1">
                    <mxGeometry x="160" y="360" width="430" height="40" as="geometry"/>
                </mxCell>
                <mxCell id="ydSMaud5VAtaV8yBInLQ-1" value="0" style="rounded=0;whiteSpace=wrap;html=1;shadow=0;sketch=0;fontFamily=Comic Sans MS;fontSize=15;fontColor=#000000;fillColor=#FFFFFF;" parent="mBV_9iGOerFN8RgRmnWN-1" vertex="1">
                    <mxGeometry x="160" y="360" width="40" height="40" as="geometry"/>
                </mxCell>
                <mxCell id="ydSMaud5VAtaV8yBInLQ-2" value="1" style="rounded=0;whiteSpace=wrap;html=1;shadow=0;sketch=0;fontFamily=Comic Sans MS;fontSize=15;fontColor=#000000;fillColor=#FFFFFF;" parent="mBV_9iGOerFN8RgRmnWN-1" vertex="1">
                    <mxGeometry x="200" y="360" width="40" height="40" as="geometry"/>
                </mxCell>
                <mxCell id="ydSMaud5VAtaV8yBInLQ-3" value="0" style="rounded=0;whiteSpace=wrap;html=1;shadow=0;sketch=0;fontFamily=Comic Sans MS;fontSize=15;fontColor=#000000;fillColor=#FFFFFF;" parent="mBV_9iGOerFN8RgRmnWN-1" vertex="1">
                    <mxGeometry x="560" y="360" width="40" height="40" as="geometry"/>
                </mxCell>
                <mxCell id="ydSMaud5VAtaV8yBInLQ-4" value="0" style="rounded=0;whiteSpace=wrap;html=1;shadow=0;sketch=0;fontFamily=Comic Sans MS;fontSize=15;fontColor=#000000;fillColor=#FFFFFF;" parent="mBV_9iGOerFN8RgRmnWN-1" vertex="1">
                    <mxGeometry x="520" y="360" width="40" height="40" as="geometry"/>
                </mxCell>
                <mxCell id="ydSMaud5VAtaV8yBInLQ-5" value="0" style="rounded=0;whiteSpace=wrap;html=1;shadow=0;sketch=0;fontFamily=Comic Sans MS;fontSize=15;fontColor=#000000;fillColor=#FFFFFF;" parent="mBV_9iGOerFN8RgRmnWN-1" vertex="1">
                    <mxGeometry x="240" y="360" width="40" height="40" as="geometry"/>
                </mxCell>
                <mxCell id="ydSMaud5VAtaV8yBInLQ-6" value="0" style="rounded=0;whiteSpace=wrap;html=1;shadow=0;sketch=0;fontFamily=Comic Sans MS;fontSize=15;fontColor=#000000;fillColor=#FFFFFF;" parent="mBV_9iGOerFN8RgRmnWN-1" vertex="1">
                    <mxGeometry x="440" y="360" width="40" height="40" as="geometry"/>
                </mxCell>
                <mxCell id="ydSMaud5VAtaV8yBInLQ-7" value="1" style="rounded=0;whiteSpace=wrap;html=1;shadow=0;sketch=0;fontFamily=Comic Sans MS;fontSize=15;fontColor=#000000;fillColor=#FFFFFF;" parent="mBV_9iGOerFN8RgRmnWN-1" vertex="1">
                    <mxGeometry x="480" y="360" width="40" height="40" as="geometry"/>
                </mxCell>
                <mxCell id="ydSMaud5VAtaV8yBInLQ-8" value="0" style="rounded=0;whiteSpace=wrap;html=1;shadow=0;sketch=0;fontFamily=Comic Sans MS;fontSize=15;fontColor=#000000;fillColor=#FFFFFF;" parent="mBV_9iGOerFN8RgRmnWN-1" vertex="1">
                    <mxGeometry x="280" y="360" width="40" height="40" as="geometry"/>
                </mxCell>
                <mxCell id="ydSMaud5VAtaV8yBInLQ-9" value="ChunkObject-&amp;gt;free_map" style="text;html=1;strokeColor=none;fillColor=none;align=center;verticalAlign=middle;whiteSpace=wrap;rounded=0;shadow=0;sketch=0;fontFamily=Comic Sans MS;fontSize=14;fontColor=#000000;" parent="mBV_9iGOerFN8RgRmnWN-1" vertex="1">
                    <mxGeometry x="280" y="410" width="220" height="40" as="geometry"/>
                </mxCell>
                <mxCell id="ydSMaud5VAtaV8yBInLQ-10" value="1" style="rounded=0;whiteSpace=wrap;html=1;shadow=0;sketch=0;fontFamily=Comic Sans MS;fontSize=15;fontColor=#000000;fillColor=#FFFFFF;" parent="mBV_9iGOerFN8RgRmnWN-1" vertex="1">
                    <mxGeometry x="320" y="360" width="40" height="40" as="geometry"/>
                </mxCell>
            </root>
        </mxGraphModel>
    </diagram>
    <diagram id="8I2nmrFYRZc-3gVUDwtx" name="第 3 页">
        <mxGraphModel dx="1360" dy="776" grid="1" gridSize="10" guides="1" tooltips="1" connect="1" arrows="1" fold="1" page="1" pageScale="1" pageWidth="827" pageHeight="1169" math="0" shadow="0">
            <root>
                <mxCell id="l7lGgiRc8v5T809vgciw-0"/>
                <mxCell id="l7lGgiRc8v5T809vgciw-1" parent="l7lGgiRc8v5T809vgciw-0"/>
                <mxCell id="l7lGgiRc8v5T809vgciw-2" value="" style="rounded=0;whiteSpace=wrap;html=1;fillColor=#d5e8d4;strokeColor=#82b366;" vertex="1" parent="l7lGgiRc8v5T809vgciw-1">
                    <mxGeometry x="200" y="360" width="240" height="40" as="geometry"/>
                </mxCell>
                <mxCell id="l7lGgiRc8v5T809vgciw-3" value="" style="rounded=0;whiteSpace=wrap;html=1;fillColor=#d5e8d4;strokeColor=#82b366;" vertex="1" parent="l7lGgiRc8v5T809vgciw-1">
                    <mxGeometry x="210" y="250" width="40" height="10" as="geometry"/>
                </mxCell>
                <mxCell id="l7lGgiRc8v5T809vgciw-4" value="" style="rounded=0;whiteSpace=wrap;html=1;fillColor=#fff2cc;strokeColor=#d6b656;" vertex="1" parent="l7lGgiRc8v5T809vgciw-1">
                    <mxGeometry x="200" y="360" width="40" height="40" as="geometry"/>
                </mxCell>
                <mxCell id="l7lGgiRc8v5T809vgciw-5" value="" style="rounded=0;whiteSpace=wrap;html=1;fillColor=#f8cecc;strokeColor=#b85450;" vertex="1" parent="l7lGgiRc8v5T809vgciw-1">
                    <mxGeometry x="200" y="360" width="20" height="40" as="geometry"/>
                </mxCell>
                <mxCell id="l7lGgiRc8v5T809vgciw-6" value="" style="rounded=0;whiteSpace=wrap;html=1;fillColor=#fff2cc;strokeColor=#d6b656;" vertex="1" parent="l7lGgiRc8v5T809vgciw-1">
                    <mxGeometry x="240" y="360" width="40" height="40" as="geometry"/>
                </mxCell>
                <mxCell id="l7lGgiRc8v5T809vgciw-7" value="" style="rounded=0;whiteSpace=wrap;html=1;fillColor=#f8cecc;strokeColor=#b85450;" vertex="1" parent="l7lGgiRc8v5T809vgciw-1">
                    <mxGeometry x="250" y="360" width="10" height="40" as="geometry"/>
                </mxCell>
                <mxCell id="l7lGgiRc8v5T809vgciw-8" value="" style="rounded=0;whiteSpace=wrap;html=1;fillColor=#fff2cc;strokeColor=#d6b656;" vertex="1" parent="l7lGgiRc8v5T809vgciw-1">
                    <mxGeometry x="320" y="360" width="40" height="40" as="geometry"/>
                </mxCell>
                <mxCell id="l7lGgiRc8v5T809vgciw-9" value="Chunk内存" style="text;html=1;strokeColor=none;fillColor=none;align=center;verticalAlign=middle;whiteSpace=wrap;rounded=0;" vertex="1" parent="l7lGgiRc8v5T809vgciw-1">
                    <mxGeometry x="260" y="240" width="120" height="30" as="geometry"/>
                </mxCell>
                <mxCell id="l7lGgiRc8v5T809vgciw-10" value="" style="rounded=0;whiteSpace=wrap;html=1;fillColor=#f8cecc;strokeColor=#b85450;" vertex="1" parent="l7lGgiRc8v5T809vgciw-1">
                    <mxGeometry x="210" y="330" width="40" height="10" as="geometry"/>
                </mxCell>
                <mxCell id="l7lGgiRc8v5T809vgciw-11" value="" style="rounded=0;whiteSpace=wrap;html=1;fillColor=#fff2cc;strokeColor=#d6b656;" vertex="1" parent="l7lGgiRc8v5T809vgciw-1">
                    <mxGeometry x="210" y="290" width="40" height="10" as="geometry"/>
                </mxCell>
                <mxCell id="l7lGgiRc8v5T809vgciw-12" value="Page内存" style="text;html=1;strokeColor=none;fillColor=none;align=center;verticalAlign=middle;whiteSpace=wrap;rounded=0;" vertex="1" parent="l7lGgiRc8v5T809vgciw-1">
                    <mxGeometry x="260" y="280" width="120" height="30" as="geometry"/>
                </mxCell>
                <mxCell id="l7lGgiRc8v5T809vgciw-13" value="Slot内存" style="text;html=1;strokeColor=none;fillColor=none;align=center;verticalAlign=middle;whiteSpace=wrap;rounded=0;" vertex="1" parent="l7lGgiRc8v5T809vgciw-1">
                    <mxGeometry x="260" y="320" width="120" height="30" as="geometry"/>
                </mxCell>
                <mxCell id="l7lGgiRc8v5T809vgciw-14" value="" style="rounded=0;whiteSpace=wrap;html=1;" vertex="1" parent="l7lGgiRc8v5T809vgciw-1">
                    <mxGeometry x="80" y="240" width="80" height="240" as="geometry"/>
                </mxCell>
                <mxCell id="l7lGgiRc8v5T809vgciw-15" value="&lt;font style=&quot;font-size: 15px&quot;&gt;2_2&lt;/font&gt;" style="rounded=0;whiteSpace=wrap;html=1;" vertex="1" parent="l7lGgiRc8v5T809vgciw-1">
                    <mxGeometry x="80" y="240" width="80" height="40" as="geometry"/>
                </mxCell>
                <mxCell id="l7lGgiRc8v5T809vgciw-16" value="2_1" style="rounded=0;whiteSpace=wrap;html=1;fontSize=15;fillColor=#FFFFFF;" vertex="1" parent="l7lGgiRc8v5T809vgciw-1">
                    <mxGeometry x="80" y="280" width="80" height="40" as="geometry"/>
                </mxCell>
                <mxCell id="l7lGgiRc8v5T809vgciw-17" value="0" style="rounded=0;whiteSpace=wrap;html=1;fontSize=15;fillColor=#FFFFFF;" vertex="1" parent="l7lGgiRc8v5T809vgciw-1">
                    <mxGeometry x="80" y="320" width="80" height="40" as="geometry"/>
                </mxCell>
                <mxCell id="l7lGgiRc8v5T809vgciw-18" value="1-1" style="rounded=0;whiteSpace=wrap;html=1;fontSize=15;fillColor=#FFFFFF;" vertex="1" parent="l7lGgiRc8v5T809vgciw-1">
                    <mxGeometry x="80" y="360" width="80" height="40" as="geometry"/>
                </mxCell>
                <mxCell id="l7lGgiRc8v5T809vgciw-19" value="0" style="rounded=0;whiteSpace=wrap;html=1;fontSize=15;fillColor=#FFFFFF;" vertex="1" parent="l7lGgiRc8v5T809vgciw-1">
                    <mxGeometry x="80" y="400" width="80" height="40" as="geometry"/>
                </mxCell>
                <mxCell id="l7lGgiRc8v5T809vgciw-20" value="0" style="rounded=0;whiteSpace=wrap;html=1;fontSize=15;fillColor=#FFFFFF;" vertex="1" parent="l7lGgiRc8v5T809vgciw-1">
                    <mxGeometry x="80" y="440" width="80" height="40" as="geometry"/>
                </mxCell>
                <mxCell id="l7lGgiRc8v5T809vgciw-21" value="" style="endArrow=classic;html=1;fontSize=15;entryX=0;entryY=1;entryDx=0;entryDy=0;" edge="1" parent="l7lGgiRc8v5T809vgciw-1" source="l7lGgiRc8v5T809vgciw-22" target="l7lGgiRc8v5T809vgciw-7">
                    <mxGeometry width="50" height="50" relative="1" as="geometry">
                        <mxPoint x="255" y="440" as="sourcePoint"/>
                        <mxPoint x="310" y="360" as="targetPoint"/>
                    </mxGeometry>
                </mxCell>
                <mxCell id="l7lGgiRc8v5T809vgciw-22" value="*ptr=205" style="text;html=1;strokeColor=none;fillColor=none;align=center;verticalAlign=middle;whiteSpace=wrap;rounded=0;fontSize=15;" vertex="1" parent="l7lGgiRc8v5T809vgciw-1">
                    <mxGeometry x="230" y="420" width="40" height="30" as="geometry"/>
                </mxCell>
            </root>
        </mxGraphModel>
    </diagram>
</mxfile>